<?xml version="1.0"?>
<svg width="640" height="480" xmlns="http://www.w3.org/2000/svg" xmlns:svg="http://www.w3.org/2000/svg">
 <!-- Created with SVG-edit - https://github.com/SVG-Edit/svgedit-->
 <g class="layer">
  <title>Layer 1</title>
  <rect fill="#ffffff" height="439" id="svg_2" stroke="#000000" stroke-width="0" width="439" x="101.5" y="32"/>
  <rect fill="#ffffff" height="301" id="svg_1" stroke="#000000" stroke-width="5" transform="matrix(1 0 0 1 0 0)" width="266" x="192" y="85"/>
  <line fill="none" id="svg_3" stroke="#000000" stroke-width="5" transform="matrix(1 0 0 1 0 0)" x1="189" x2="443" y1="54" y2="54"/>
  <line fill="none" id="svg_4" stroke="#000000" stroke-width="5" x1="145" x2="145" y1="70.5" y2="367.37"/>
  <line fill="none" id="svg_10" stroke="#000000" stroke-width="5" transform="matrix(1 0 0 1 0 0)" x1="440" x2="440" y1="56.5" y2="83.5"/>
  <path d="m192.5,54c5.5,-1.33 -48,4.83 -47.5,18.5c0.5,13.67 53.67,11.83 47,12.5" fill="none" id="svg_19" stroke="#000000" stroke-width="5"/>
  <path d="m439.5,54c5.5,-1.33 -32.5,5.33 -32,19c0.5,13.67 53.67,11.83 47,12.5" fill="none" id="svg_20" stroke="#000000" stroke-width="5" transform="matrix(1 0 0 1 0 0)"/>
  <path fill="none" id="svg_21" stroke="#000000"/>
  <path fill="none" id="svg_22" stroke="#000000"/>
  <path d="m145.5,364.5c1,27.67 37.5,20.33 49,21.5" fill="none" id="svg_24" stroke="#000000" stroke-width="5" transform="matrix(1 0 0 1 0 0)"/>
  <line fill="none" id="svg_25" stroke="#000000" stroke-width="15" x1="377" x2="263" y1="162.5" y2="426"/>
  <line fill="none" id="svg_26" points="null" stroke="#000000" stroke-width="15" x1="481.86" x2="376.14" y1="428.72" y2="161.78"/>
  <line fill="none" id="svg_27" stroke="#000000" stroke-width="15" x1="339" x2="414.5" y1="160" y2="160"/>
  <line fill="none" id="svg_28" stroke="#000000" stroke-width="15" x1="376.5" x2="376.5" y1="129.5" y2="160.5"/>
  <path fill="#ffffff" id="svg_29" stroke="#000000"/>
  <path fill="#ffffff" id="svg_30" stroke="#000000"/>
  <path d="m271.5,284c106.17,86.67 200.33,9.83 210.5,1.5" fill="#000000" fill-opacity="0" id="svg_31" stroke="#000000" stroke-width="15"/>
 </g>
</svg>